<svg width="45" height="45" viewBox="0 0 45 45" fill="none" xmlns="http://www.w3.org/2000/svg">
<path d="M23.6517 44.1C17.3165 44.1 11.3722 41.6937 6.91376 37.3245C2.45528 32.9554 5.53919e-07 27.1297 5.53919e-07 20.9211C-0.000945184 16.6382 1.20916 12.4387 3.496 8.78892C5.78284 5.13911 9.05697 2.1817 12.955 0.244937C13.356 0.0445959 13.8084 -0.0355502 14.2556 0.0145039C14.7028 0.064558 15.1251 0.242595 15.4697 0.52639C15.8143 0.810185 16.066 1.18717 16.1933 1.61027C16.3206 2.03338 16.318 2.48387 16.1857 2.90551C15.0734 6.42643 14.964 10.1783 15.8695 13.7557C16.775 17.3331 18.6608 20.5999 21.3233 23.2032C23.2339 25.0896 25.5074 26.5858 28.0121 27.6053C30.5168 28.6247 33.2029 29.1472 35.9151 29.1424C37.9898 29.144 40.053 28.839 42.0349 28.2378C42.4652 28.1081 42.9249 28.1054 43.3567 28.2302C43.7885 28.3549 44.1733 28.6016 44.4629 28.9393C44.7525 29.2771 44.9342 29.691 44.9852 30.1293C45.0363 30.5676 44.9544 31.011 44.7499 31.404C42.7736 35.224 39.7558 38.4327 36.0315 40.6738C32.3072 42.9149 28.0221 44.1009 23.6517 44.1V44.1ZM12.8731 3.65403C9.85043 5.45636 7.35352 7.99266 5.62391 11.0176C3.89431 14.0425 2.99055 17.4537 3.00007 20.9211C3.00007 32.0808 12.2643 41.1599 23.6517 41.1599C27.1899 41.1693 30.6707 40.2836 33.7574 38.5886C36.8441 36.8936 39.4322 34.4466 41.2713 31.4844C39.515 31.8827 37.718 32.0835 35.9153 32.0828C32.809 32.0886 29.7325 31.4905 26.8637 30.3232C23.9949 29.1559 21.3908 27.4426 19.2022 25.2824C16.3591 22.5014 14.2859 19.0562 13.1786 15.272C12.0712 11.4879 11.966 7.4896 12.8731 3.65458V3.65403Z" fill="black"/>
</svg>
