<svg width="50" height="50" viewBox="0 0 50 50" fill="none" xmlns="http://www.w3.org/2000/svg">
<path d="M25 18.7578C26.2361 18.7578 27.4445 19.1244 28.4723 19.8111C29.5001 20.4979 30.3012 21.474 30.7743 22.616C31.2473 23.7581 31.3711 25.0147 31.1299 26.2271C30.8888 27.4395 30.2935 28.5532 29.4194 29.4272C28.5453 30.3013 27.4317 30.8966 26.2193 31.1377C25.0069 31.3789 23.7503 31.2551 22.6082 30.7821C21.4662 30.309 20.4901 29.5079 19.8033 28.4801C19.1166 27.4523 18.75 26.2439 18.75 25.0078C18.7521 23.3508 19.4112 21.7623 20.5829 20.5907C21.7545 19.419 23.343 18.7599 25 18.7578ZM25 15.6328C23.1458 15.6328 21.3332 16.1826 19.7915 17.2128C18.2498 18.2429 17.0482 19.7071 16.3386 21.4202C15.6291 23.1332 15.4434 25.0182 15.8051 26.8368C16.1669 28.6554 17.0598 30.3258 18.3709 31.6369C19.682 32.9481 21.3525 33.8409 23.171 34.2027C24.9896 34.5644 26.8746 34.3788 28.5877 33.6692C30.3007 32.9596 31.7649 31.758 32.795 30.2163C33.8252 28.6746 34.375 26.862 34.375 25.0078C34.375 22.5214 33.3873 20.1368 31.6291 18.3787C29.871 16.6205 27.4864 15.6328 25 15.6328Z" fill="white"/>
<path d="M8.42773 10.6453L10.6371 8.43439L16.1152 13.9125L13.9059 16.1219L8.42773 10.6453Z" fill="white"/>
<path d="M3.125 23.4453H10.9375V26.5703H3.125V23.4453Z" fill="white"/>
<path d="M8.42773 39.3703L13.9059 33.8922L16.1152 36.1031L10.6371 41.5797L8.42773 39.3703Z" fill="white"/>
<path d="M23.4375 39.0703H26.5625V46.8828H23.4375V39.0703Z" fill="white"/>
<path d="M33.8857 36.1031L36.0951 33.8922L41.5732 39.3703L39.3639 41.5797L33.8857 36.1031Z" fill="white"/>
<path d="M39.0625 23.4453H46.875V26.5703H39.0625V23.4453Z" fill="white"/>
<path d="M33.8857 13.9125L39.3639 8.43439L41.5732 10.6453L36.0951 16.1219L33.8857 13.9125Z" fill="white"/>
<path d="M23.4375 3.13281H26.5625V10.9453H23.4375V3.13281Z" fill="white"/>
</svg>
